<svg xmlns="http://www.w3.org/2000/svg" width="51" height="51" viewBox="0 0 51 51" fill="none">
  <g opacity="0.71" clip-path="url(#clip0_84_760)">
    <path d="M51.0398 50.98H0.0398445V19.9019H51.0398V50.98ZM5.61797 45.4019H45.4617V25.48H5.61797V45.4019Z" fill="white"/>
    <path d="M15.1605 40.2222C17.8012 40.2222 19.9418 38.0815 19.9418 35.4409C19.9418 32.8003 17.8012 30.6597 15.1605 30.6597C12.5199 30.6597 10.3793 32.8003 10.3793 35.4409C10.3793 38.0815 12.5199 40.2222 15.1605 40.2222Z" fill="white"/>
    <path d="M35.7797 40.2222C38.4203 40.2222 40.5609 38.0815 40.5609 35.4409C40.5609 32.8003 38.4203 30.6597 35.7797 30.6597C33.1391 30.6597 30.9984 32.8003 30.9984 35.4409C30.9984 38.0815 33.1391 40.2222 35.7797 40.2222Z" fill="white"/>
    <path d="M25.7789 15.3198H25.6395C21.4061 15.3198 17.9695 11.8833 17.9695 7.6499C17.9695 3.4165 21.4061 -0.0200195 25.6395 -0.0200195H25.7789C30.0123 -0.0200195 33.4488 3.4165 33.4488 7.6499C33.4488 11.8833 30.0123 15.3198 25.7789 15.3198ZM25.6395 5.55811C24.484 5.55811 23.5477 6.49443 23.5477 7.6499C23.5477 8.80537 24.484 9.7417 25.6395 9.7417H25.7789C26.9344 9.7417 27.8707 8.80537 27.8707 7.6499C27.8707 6.49443 26.9344 5.55811 25.7789 5.55811H25.6395Z" fill="white"/>
    <path d="M22.7508 11.9331H28.3289V22.6909H22.7508V11.9331Z" fill="white"/>
  </g>
  <defs>
    <clipPath id="clip0_84_760">
      <rect width="51" height="51" fill="white"/>
    </clipPath>
  </defs>
</svg>