<svg xmlns="http://www.w3.org/2000/svg" width="51" height="51" viewBox="0 0 51 51" fill="none">
  <g opacity="0.71" clip-path="url(#clip0_84_686)">
    <path d="M0.00994873 42.2144H20.3601V47.7925H0.00994873V42.2144ZM9.64218 13.5269H31.3072V19.105H9.64218V13.5269ZM9.64218 25.48H21.0474V31.0581H9.64218V25.48Z" fill="white"/>
    <path d="M0 -0.0200195H5.57812V46.0095H0V-0.0200195Z" fill="white"/>
    <path d="M0.119537 -0.0200195H40.9793V5.55811H0.119537V-0.0200195Z" fill="white"/>
    <path d="M35.9391 -0.0200195H41.5172V25.6792H35.9391V-0.0200195ZM23.3398 41.7279L27.9672 37.1004L32.5948 41.7279L27.9672 46.3554L23.3398 41.7279ZM37.1931 37.1119L41.8205 32.4844L46.4481 37.1119L41.8205 41.7393L37.1931 37.1119ZM41.826 32.487L46.4534 27.8594L51.0809 32.487L46.4534 37.1145L41.826 32.487Z" fill="white"/>
    <path d="M27.9576 46.354L32.585 41.7266L37.2126 46.354L32.585 50.9816L27.9576 46.354Z" fill="white"/>
    <path d="M32.5792 41.7217L37.2068 37.0942L41.8342 41.7217L37.2068 46.3492L32.5792 41.7217Z" fill="white"/>
  </g>
  <defs>
    <clipPath id="clip0_84_686">
      <rect width="51" height="51" fill="white"/>
    </clipPath>
  </defs>
</svg>