<svg xmlns="http://www.w3.org/2000/svg" width="51" height="51" viewBox="0 0 51 51" fill="none">
  <g opacity="0.71" clip-path="url(#clip0_84_750)">
    <path d="M25.8088 51.0198L12.6803 47.3841L12.8596 41.5171C12.232 41.019 11.6344 40.4911 11.0766 39.9333C10.5287 39.3854 10.0008 38.7978 9.5127 38.1802L3.28711 38.4093L0 25.1911L5.36895 22.4319C5.60801 20.9179 6.00645 19.4437 6.56426 18.0392L3.38672 12.969L12.999 3.34678L18.1687 6.56416C19.5732 6.01631 21.0176 5.63779 22.5117 5.41865L25.4004 -0.0698242L38.509 3.58584L38.2898 9.71182C38.8377 10.1601 39.3656 10.6282 39.8836 11.1362L39.8936 11.1462C40.4215 11.6741 40.9195 12.2319 41.3777 12.7997L47.8424 12.6104L51.0996 25.8187L45.6111 28.6276C45.392 30.072 45.0135 31.4864 44.4955 32.8411L47.7229 38.0208L38.1105 47.6331L33.0105 44.4556C31.5961 45.0233 30.1119 45.4218 28.5879 45.6608L25.8088 51.0198ZM18.3979 43.1806L22.94 44.4456L25.0418 40.3915L26.5857 40.272C28.4982 40.1226 30.3211 39.6345 31.9945 38.7978L33.3891 38.1105L37.3037 40.5509L40.6406 37.214L38.1803 33.2694L38.8377 31.8849C39.6246 30.2413 40.0928 28.4683 40.2223 26.6255L40.3418 25.0616L44.625 22.8702L43.4994 18.3081L38.5488 18.4575L37.6922 17.1825C37.2041 16.4653 36.6264 15.7581 35.959 15.0907C35.3016 14.4433 34.5943 13.8556 33.8672 13.3575L32.6121 12.4909L32.7715 7.76943L28.2293 6.50439L26.018 10.6979L24.4641 10.8075C22.6014 10.937 20.7984 11.4052 19.125 12.212L17.7404 12.8794L13.7859 10.419L10.449 13.7659L12.8895 17.6606L12.1922 19.0552C11.3654 20.7187 10.8674 22.5315 10.718 24.444L10.5984 25.9979L6.47461 28.1196L7.62012 32.6718L12.3416 32.5024L13.2082 33.7774C13.7461 34.5743 14.3637 35.3214 15.0311 35.9888C15.6984 36.6562 16.4455 37.2737 17.2623 37.8216L18.5373 38.6782L18.3979 43.1806Z" fill="white"/>
    <path d="M25.6295 34.5846H25.4502C20.4 34.5846 16.2961 30.4807 16.2961 25.4305C16.2961 20.3803 20.4 16.2764 25.4502 16.2764H25.6295C30.6797 16.2764 34.7836 20.3803 34.7836 25.4305C34.7836 30.4807 30.6797 34.5846 25.6295 34.5846ZM25.4502 21.8545C23.4779 21.8545 21.8742 23.4582 21.8742 25.4305C21.8742 27.4027 23.4779 29.0064 25.4502 29.0064H25.6295C27.6017 29.0064 29.2055 27.4027 29.2055 25.4305C29.2055 23.4582 27.6017 21.8545 25.6295 21.8545H25.4502Z" fill="white"/>
  </g>
  <defs>
    <clipPath id="clip0_84_750">
      <rect width="51" height="51" fill="white"/>
    </clipPath>
  </defs>
</svg>