<svg xmlns="http://www.w3.org/2000/svg" width="27" height="25" viewBox="0 0 27 25" fill="none">
  <g clip-path="url(#clip0_193_690)">
    <path d="M15.2654 23.0249L15.2654 18.9378C15.2654 18.3835 15.7272 17.9344 16.2969 17.9344C18.3295 17.9344 19.4352 15.906 19.5884 11.9026L16.2969 11.9026C15.7272 11.9026 15.2654 11.4531 15.2654 10.899L15.2654 2.26935C15.2654 1.71533 15.7272 1.26614 16.2969 1.26614L25.0727 1.26614C25.6426 1.26614 26.104 1.71568 26.104 2.26935L26.104 10.899C26.104 12.8181 25.9054 14.5793 25.5139 16.1341C25.1124 17.7283 24.496 19.1221 23.6825 20.2771C22.8454 21.4641 21.7983 22.3955 20.5701 23.0444C19.3336 23.6972 17.8956 24.0283 16.2966 24.0283C15.7272 24.0283 15.2654 23.5792 15.2654 23.0249ZM1.96237 17.9343C1.39296 17.9343 0.930787 18.3839 0.930787 18.9377L0.930786 23.0248C0.930786 23.5791 1.39289 24.0282 1.96237 24.0282C3.56076 24.0282 4.99892 23.6971 6.23502 23.0443C7.46347 22.3955 8.51114 21.464 9.34837 20.277C10.1616 19.1221 10.778 17.7281 11.1796 16.1336C11.5708 14.5783 11.7694 12.8172 11.7694 10.8989L11.7694 2.26928C11.7694 1.71526 11.3075 1.26607 10.7379 1.26607L1.96244 1.26607C1.39304 1.26607 0.931292 1.71561 0.931292 2.26928L0.931291 10.899C0.931291 11.453 1.39296 11.9026 1.96244 11.9026L5.20697 11.9026C5.05604 15.9059 3.96655 17.9343 1.96237 17.9343Z" fill="#6D597A" fill-opacity="0.28"/>
  </g>
  <defs>
    <clipPath id="clip0_193_690">
      <rect width="25.1732" height="24.4929" fill="white" transform="translate(26.104 24.8936) rotate(-180)"/>
    </clipPath>
  </defs>
</svg>