<svg xmlns="http://www.w3.org/2000/svg" width="27" height="25" viewBox="0 0 27 25" fill="none">
  <g clip-path="url(#clip0_193_693)">
    <path d="M11.7346 1.96827V6.05534C11.7346 6.60964 11.2728 7.05876 10.7031 7.05876C8.67047 7.05876 7.56483 9.08715 7.41159 13.0905L10.7031 13.0905C11.2728 13.0905 11.7346 13.5401 11.7346 14.0942L11.7346 22.7238C11.7346 23.2778 11.2728 23.727 10.7031 23.727H1.92729C1.35738 23.727 0.895996 23.2775 0.895996 22.7238L0.895996 14.0942C0.895996 12.175 1.0946 10.4139 1.4861 8.85911C1.88763 7.26491 2.50398 5.87102 3.31749 4.71604C4.15459 3.52907 5.20167 2.59764 6.42991 1.94876C7.66644 1.29595 9.10438 0.964844 10.7034 0.964844C11.2728 0.964844 11.7346 1.41397 11.7346 1.96827ZM25.0376 7.05883C25.607 7.05883 26.0692 6.60929 26.0692 6.05541V1.96834C26.0692 1.41404 25.6071 0.964914 25.0376 0.964914C23.4392 0.964914 22.0011 1.29609 20.765 1.94883C19.5365 2.59771 18.4889 3.52914 17.6516 4.71611C16.8384 5.87109 16.222 7.26505 15.8204 8.8596C15.4292 10.4149 15.2306 12.176 15.2306 14.0942L15.2306 22.7239C15.2306 23.2779 15.6925 23.7271 16.2621 23.7271H25.0376C25.607 23.7271 26.0687 23.2776 26.0687 22.7239L26.0687 14.0942C26.0687 13.5401 25.607 13.0905 25.0376 13.0905L21.793 13.0905C21.944 9.08722 23.0335 7.05883 25.0376 7.05883Z" fill="#6D597A" fill-opacity="0.28"/>
  </g>
  <defs>
    <clipPath id="clip0_193_693">
      <rect width="25.1732" height="24.4929" fill="white" transform="translate(0.895996 0.0996094)"/>
    </clipPath>
  </defs>
</svg>