<svg xmlns="http://www.w3.org/2000/svg" width="50" height="50" viewBox="0 0 50 50" fill="none">
  <g opacity="0.71" clip-path="url(#clip0_84_699)">
    <path d="M20.4492 27.2948C21.4453 29.3456 22.5195 31.1718 23.6816 32.7831C22.6563 34.4042 21.4063 35.9178 19.7363 37.0995C18.252 38.1542 15.9082 39.4335 10.8301 39.9901C7.68555 40.3319 4.83398 40.3612 1.63086 40.3612H0.0683594V34.8925H0.878906C4.23828 34.8925 7.14844 34.8925 10.2441 34.5507C12.373 34.3163 14.7949 33.9061 16.582 32.6366C18.2715 31.4452 19.3945 29.4823 20.4492 27.2948ZM27.0312 23.8671C27.2168 24.2479 27.4023 24.619 27.5879 24.9803C27.4023 25.3417 27.2168 25.7128 27.0312 26.0936C26.7578 26.66 26.4941 27.2362 26.2207 27.8417C25.7617 28.8378 25.293 29.8729 24.7559 30.9081C23.8184 29.5116 22.9395 27.9589 22.1094 26.2401C21.9043 25.8202 21.709 25.4003 21.5234 24.9901C21.7188 24.5702 21.9141 24.1503 22.1094 23.7401C22.9395 22.0214 23.8184 20.4686 24.7559 19.0721C25.293 20.0975 25.7715 21.1327 26.2207 22.1288C26.5039 22.7245 26.7676 23.3007 27.0312 23.8671ZM42.3242 9.84362L41.5234 15.2538C40.6641 15.1268 39.7656 15.1366 38.8574 15.2733C36.8555 15.576 34.8047 16.5038 33.0371 17.9296C31.4746 19.1893 30.0586 20.8397 28.7598 22.9296C28.5059 22.4022 28.2617 21.8651 27.998 21.2987C27.4219 20.0389 26.7969 18.6717 26.0352 17.3046C27.1387 15.9081 28.3301 14.7069 29.5996 13.6717C32.3926 11.4159 35.6348 10.0585 38.8574 9.74597C40.0195 9.64831 41.1914 9.66784 42.3242 9.84362Z" fill="white"/>
    <path d="M38.8574 18.8672V5.99609L50.0098 12.4316L38.8574 18.8672Z" fill="white"/>
    <path d="M44.3945 40.7617L42.041 42.1191C41.4551 42.1875 40.8691 42.2168 40.2734 42.2168C39.8047 42.2168 39.3262 42.1973 38.8574 42.1582V40.1953C38.2031 40.1367 37.5488 40.0293 36.9043 39.8828C34.3457 39.3066 31.8262 38.0762 29.5996 36.2793C27.8223 34.8438 26.2207 33.0664 24.7559 30.9082C23.8184 29.5117 22.9395 27.959 22.1094 26.2402C21.9043 25.8203 21.709 25.4004 21.5234 24.9902C21.4355 24.7949 21.3379 24.5996 21.25 24.4043C19.9414 21.543 18.7012 18.8379 16.5723 17.3242C14.7949 16.0547 12.373 15.6445 10.2344 15.4102C7.13867 15.0684 4.22852 15.0684 0.869141 15.0684H0.0683594V9.59961H0.869141C4.39453 9.59961 7.44141 9.59961 10.8398 9.9707C15.918 10.5273 18.2617 11.8066 19.7461 12.8613C22.041 14.4922 23.5547 16.7578 24.7559 19.0625C25.293 20.0879 25.7715 21.123 26.2207 22.1191C26.5039 22.7246 26.7578 23.3008 27.0312 23.8672C27.2168 24.248 27.4023 24.6191 27.5879 24.9805C29.1992 28.0664 30.9863 30.3711 33.0273 32.0215C34.2285 32.9883 35.5469 33.7207 36.8945 34.1895C37.5391 34.4141 38.2031 34.5801 38.8477 34.6777V32.6953C39.3359 32.793 39.8145 32.832 40.293 32.832C40.6152 32.832 40.9277 32.8125 41.2305 32.7637L41.6699 32.6953L43.3398 33.6621L44.3945 40.7617Z" fill="white"/>
    <path d="M42.3242 40.1172C41.6504 40.2148 40.957 40.2637 40.2734 40.2637C39.8047 40.2637 39.3262 40.2441 38.8574 40.1953C38.2031 40.1367 37.5488 40.0293 36.9043 39.8828C34.3457 39.3066 31.8262 38.0762 29.5996 36.2793C27.8223 34.8438 26.2207 33.0664 24.7559 30.9082C23.8184 29.5117 22.9395 27.959 22.1094 26.2402C21.9043 25.8203 21.709 25.4004 21.5234 24.9902C21.4355 24.7949 21.3379 24.5996 21.25 24.4043C19.9414 21.543 18.7012 18.8379 16.5723 17.3242C14.7949 16.0547 12.373 15.6445 10.2344 15.4102C7.13867 15.0684 4.22852 15.0684 0.869141 15.0684H0.0683594V9.59961H0.869141C4.39453 9.59961 7.44141 9.59961 10.8398 9.9707C15.918 10.5273 18.2617 11.8066 19.7461 12.8613C22.041 14.4922 23.5547 16.7578 24.7559 19.0625C25.293 20.0879 25.7715 21.123 26.2207 22.1191C26.5039 22.7246 26.7578 23.3008 27.0312 23.8672C27.2168 24.248 27.4023 24.6191 27.5879 24.9805C29.1992 28.0664 30.9863 30.3711 33.0273 32.0215C34.2285 32.9883 35.5469 33.7207 36.8945 34.1895C37.5391 34.4141 38.2031 34.5801 38.8477 34.6777C39.7559 34.8145 40.6543 34.834 41.5137 34.6973L42.3242 40.1172Z" fill="white"/>
    <path d="M50.0098 37.5195L44.3945 40.7617L42.041 42.1191L38.8574 43.9551V40.1953C38.2031 40.1367 37.5488 40.0293 36.9043 39.8828V34.1895C37.5488 34.4141 38.2129 34.5801 38.8574 34.6777V31.084L41.6699 32.7051L43.3398 33.6719L50.0098 37.5195Z" fill="white"/>
    <path d="M50.0098 37.5195L44.3945 40.7617L42.041 42.1289L38.8574 43.9648V31.084L41.6699 32.7148L43.3398 33.6816L50.0098 37.5195Z" fill="white"/>
  </g>
  <defs>
    <clipPath id="clip0_84_699">
      <rect width="50" height="50" fill="white"/>
    </clipPath>
  </defs>
</svg>