<svg xmlns="http://www.w3.org/2000/svg" width="51" height="51" viewBox="0 0 51 51" fill="none">
  <g opacity="0.71" clip-path="url(#clip0_84_723)">
    <path d="M25.5399 50.98C18.7266 50.98 12.3217 48.3304 7.51056 43.5093C2.68947 38.6882 0.039856 32.2933 0.039856 25.48C0.039856 18.6667 2.68947 12.2618 7.51056 7.45068C12.3317 2.63955 18.7266 -0.0200195 25.5399 -0.0200195C32.3531 -0.0200195 38.758 2.62959 43.5692 7.45068C48.3902 12.2718 51.0399 18.6667 51.0399 25.48C51.0399 32.2933 48.3902 38.6981 43.5692 43.5093C38.758 48.3304 32.3531 50.98 25.5399 50.98ZM25.5399 5.55811C14.5529 5.55811 5.61798 14.4931 5.61798 25.48C5.61798 36.4669 14.5529 45.4019 25.5399 45.4019C36.5268 45.4019 45.4617 36.4669 45.4617 25.48C45.4617 14.4931 36.5268 5.55811 25.5399 5.55811Z" fill="white"/>
    <path d="M29.0461 49.8742L24.5936 46.5174C27.2531 42.9912 31.7156 35.5703 31.7156 25.4898C31.7156 22.8602 31.367 20.0312 30.7096 17.3219C29.5442 12.5406 27.4723 8.17773 24.5338 4.35273L28.9565 0.956055C32.3631 5.39863 34.7836 10.4588 36.1283 16.007C36.8953 19.1348 37.2938 22.4219 37.2938 25.4898C37.2838 37.1939 32.124 45.7902 29.0461 49.8742Z" fill="white"/>
    <path d="M22.0336 49.8843C18.6668 45.4616 16.2762 40.4214 14.9414 34.913C14.1844 31.7952 13.7859 28.538 13.7859 25.48C13.7859 20.4099 14.7422 15.4394 16.6348 10.688C17.9397 7.4208 19.643 4.33291 21.7049 1.52393L26.2072 4.821C24.4442 7.22158 22.9301 9.96084 21.8244 12.7499C20.2008 16.8438 19.374 21.1271 19.374 25.48C19.374 28.0997 19.7227 30.9087 20.3701 33.5981C21.5256 38.3495 23.5776 42.6925 26.4762 46.4976L22.0336 49.8843Z" fill="white"/>
    <path d="M2.82892 22.6909H48.2508V28.269H2.82892V22.6909Z" fill="white"/>
  </g>
  <defs>
    <clipPath id="clip0_84_723">
      <rect width="51" height="51" fill="white"/>
    </clipPath>
  </defs>
</svg>