<svg width="114" height="114" viewBox="0 0 114 114" fill="none" xmlns="http://www.w3.org/2000/svg">
<g opacity="0.25">
<circle opacity="0.14" cx="57" cy="57" r="51.5" stroke="white" stroke-width="11"/>
<circle opacity="0.14" cx="57" cy="57" r="46.5" stroke="white" stroke-width="21"/>
<circle opacity="0.14" cx="57" cy="57" r="41.5" stroke="white" stroke-width="31"/>
</g>
<circle cx="57" cy="57" r="28" fill="#D9D9D9"/>
<path d="M45 56C44.4477 56 44 56.4477 44 57C44 57.5523 44.4477 58 45 58V56ZM69.7071 57.7071C70.0976 57.3166 70.0976 56.6834 69.7071 56.2929L63.3431 49.9289C62.9526 49.5384 62.3195 49.5384 61.9289 49.9289C61.5384 50.3195 61.5384 50.9526 61.9289 51.3431L67.5858 57L61.9289 62.6569C61.5384 63.0474 61.5384 63.6805 61.9289 64.0711C62.3195 64.4616 62.9526 64.4616 63.3431 64.0711L69.7071 57.7071ZM45 58H69V56H45V58Z" fill="#575757"/>
</svg>
