<svg xmlns="http://www.w3.org/2000/svg" width="30" height="30" viewBox="0 0 30 30" fill="none">
  <circle cx="15" cy="15" r="15" fill="#D9D9D9"/>
  <path d="M8.57144 14.4643C8.27557 14.4643 8.03573 14.7041 8.03573 15C8.03573 15.2959 8.27557 15.5357 8.57144 15.5357V14.4643ZM21.8074 15.3788C22.0166 15.1696 22.0166 14.8304 21.8074 14.6212L18.3981 11.2119C18.1889 11.0027 17.8497 11.0027 17.6405 11.2119C17.4313 11.4211 17.4313 11.7603 17.6405 11.9695L20.671 15L17.6405 18.0305C17.4313 18.2397 17.4313 18.5789 17.6405 18.7881C17.8497 18.9973 18.1889 18.9973 18.3981 18.7881L21.8074 15.3788ZM8.57144 15.5357H21.4286V14.4643H8.57144V15.5357Z" fill="#575757"/>
</svg>