<svg xmlns="http://www.w3.org/2000/svg" width="18" height="17" viewBox="0 0 18 17" fill="none">
  <path d="M15.514 7.17762H10.4879L8.93158 2.33008L7.37526 7.17762H2.34912L6.43126 10.1372L4.87495 14.9592L8.95709 11.9741L13.0392 14.9592L11.4319 10.1372L15.514 7.17762Z" fill="#FAD97F"/>
  <path d="M17.1215 6.64201H10.8963L8.95725 0.671875L7.01824 6.64201H0.792969L5.81911 10.3159L3.88009 16.2861L8.95725 12.6121L14.0089 16.3116L12.0699 10.3414L17.1215 6.64201ZM8.95725 11.9743L4.87511 14.9594L6.43143 10.1373L2.34929 7.17779H7.37542L8.93174 2.33025L10.4881 7.17779H15.5142L11.4321 10.1373L13.0394 14.9594L8.95725 11.9743Z" fill="white"/>
</svg>